<svg xmlns="http://www.w3.org/2000/svg" version="1.0" width="700" height="700">
  <path
    d="M205.5 1.1c-2.2.4-5.1 1-6.4 1.3-14 3-32.5 14.4-43.4 26.8-22.5 25.4-28.3 55.9-16.2 84.3 5.4 12.5 8.7 16 116.6 124C314.3 295.8 362 343.8 362 344.2c0 .3-19.8 20.4-44.1 44.5C208.3 497.6 146.1 560.5 139.5 569c-13 16.9-18 35.7-15.3 57.5 2 15.2 11.6 33.6 24.5 46.8 24.9 25.5 60.8 33.1 88.9 18.9 10.8-5.5 18-11.8 53-47.2 44.4-44.8 181.5-181.9 249.2-249.1l52-51.7-161.5-161.3C341.5 94.1 268.3 21 267.7 20.5c-8.8-8-21.8-15.2-32.2-18-6.9-1.9-24.1-2.7-30-1.4z"
    fill="#ff6205"
  />
</svg>